<svg width="64" height="20" viewBox="0 0 64 20" fill="none" xmlns="http://www.w3.org/2000/svg">
<path fill-rule="evenodd" clip-rule="evenodd" d="M59.589 8.33012C59.5315 8.34162 59.4738 8.46849 59.4738 8.53762C59.4622 8.99912 59.4508 10.2219 59.4508 11.0524C59.4508 11.0755 59.4853 11.1216 59.5199 11.1216C59.6929 11.1331 60.1081 11.1446 60.4658 11.1446C60.9618 11.1446 61.2501 11.0755 61.4118 11.0064C61.8269 10.7986 62.023 10.3487 62.023 9.85262C62.023 8.73387 61.2386 8.30699 60.0735 8.30699C59.9928 8.29549 59.7623 8.29549 59.589 8.33012ZM62.5653 13.4864C62.5653 12.3444 61.7231 11.7099 60.2005 11.7099C60.1313 11.7099 59.6468 11.6984 59.5314 11.7214C59.4968 11.733 59.4508 11.7561 59.4508 11.7907C59.4508 12.6096 59.4391 13.9132 59.4738 14.4207C59.4967 14.6399 59.6584 14.9514 59.8545 15.0436C60.062 15.159 60.535 15.182 60.858 15.182C61.7693 15.182 62.5653 14.6745 62.5653 13.4864ZM57.236 7.69574C57.3513 7.69574 57.6973 7.73024 58.5855 7.73024C59.4276 7.73024 60.0966 7.70724 60.9156 7.70724C61.9191 7.70724 63.3034 8.06474 63.3034 9.56437C63.3034 10.3026 62.7843 10.891 62.1038 11.1794C62.0693 11.1909 62.0693 11.2139 62.1038 11.2254C63.0726 11.4677 63.9264 12.0675 63.9264 13.1979C63.9264 14.3054 63.2343 15.009 62.2306 15.4474C61.6193 15.7126 60.858 15.8049 60.0851 15.8049C59.4968 15.8049 57.9165 15.7357 57.0399 15.7589C56.9476 15.7241 57.1206 15.3089 57.2013 15.2397C57.409 15.2281 57.5704 15.2166 57.7896 15.1474C58.1011 15.0667 58.1356 14.9744 58.1818 14.5015C58.2049 14.0977 58.2049 12.6672 58.2049 11.6522C58.2049 10.2565 58.2165 9.31062 58.2049 8.84924C58.1934 8.49174 58.0665 8.37624 57.8128 8.30699C57.6165 8.27249 57.2936 8.22624 57.0283 8.19174C56.9705 8.13399 57.1666 7.74174 57.236 7.69574ZM50.58 14.8706C50.857 15.0896 51.3991 15.1819 51.8836 15.1819C52.5065 15.1819 53.1294 15.0667 53.7293 14.5244C54.3406 13.9709 54.7674 13.1172 54.7674 11.7561C54.7674 10.4525 54.2714 9.39124 53.2563 8.76849C52.6795 8.41074 51.9413 8.26099 51.0876 8.26099C50.8339 8.26099 50.5916 8.27249 50.4418 8.34162C50.407 8.36474 50.3264 8.46849 50.3264 8.52612C50.3033 8.75687 50.3033 10.5332 50.3033 11.5715C50.3033 12.6442 50.3033 14.1439 50.3264 14.3169C50.3264 14.49 50.407 14.7552 50.5801 14.8706H50.58ZM47.9615 7.69562C48.1808 7.69562 49.0228 7.73024 49.4265 7.73024C50.1534 7.73024 50.6724 7.69574 52.045 7.69574C53.1985 7.69574 54.1675 8.00712 54.8596 8.59537C55.7016 9.32212 56.1401 10.3257 56.1401 11.5484C56.1401 13.2902 55.3441 14.2939 54.5481 14.8706C53.7524 15.4589 52.7141 15.8049 51.2376 15.8049C50.4533 15.8049 49.1036 15.7819 47.9846 15.7702H47.9731C47.9155 15.6665 48.0654 15.2627 48.1576 15.2512C48.4576 15.2166 48.5384 15.205 48.6884 15.1475C48.9305 15.0551 48.9768 14.9282 49.0114 14.5015C49.0459 13.7055 49.0344 12.7481 49.0344 11.6637C49.0344 10.891 49.0459 9.37974 49.0228 8.89524C48.9883 8.49162 48.8153 8.38774 48.4691 8.31849C48.2961 8.28399 48.0654 8.23774 47.7425 8.20324C47.6963 8.12237 47.9039 7.76474 47.9615 7.69562Z" fill="#0D0D0C"/>
<path fill-rule="evenodd" clip-rule="evenodd" d="M34.004 15.3203C33.7156 15.2857 33.508 15.2397 33.2543 15.1243C33.2196 15.1012 33.1619 14.986 33.1619 14.9397C33.1389 14.536 33.1389 13.3825 33.1389 12.6097C33.1389 11.9867 33.0351 11.4446 32.7698 11.064C32.4583 10.6255 32.0085 10.3718 31.4316 10.3718C30.9241 10.3718 30.2435 10.7178 29.6783 11.2023C29.6668 11.2138 29.5745 11.2947 29.586 11.1677C29.586 11.0408 29.6091 10.7871 29.6206 10.614C29.6323 10.4525 29.5399 10.3718 29.5399 10.3718C29.1708 10.5563 28.1326 10.7986 27.7519 10.8331C27.4751 10.891 27.4059 11.1562 27.6944 11.2485H27.7059C28.0171 11.3407 28.2249 11.4446 28.3863 11.5485C28.5016 11.6407 28.4901 11.7676 28.4901 11.8715C28.5016 12.7365 28.5016 14.0631 28.4671 14.7898C28.4556 15.0782 28.3749 15.182 28.1671 15.2281L28.1903 15.2166C28.0288 15.2512 27.9019 15.2857 27.7058 15.3088C27.6365 15.3781 27.6365 15.7472 27.7058 15.828C27.8326 15.828 28.5016 15.7933 29.0555 15.7933C29.8168 15.7933 30.209 15.828 30.405 15.828C30.4858 15.7357 30.5089 15.3896 30.4628 15.3088C30.2435 15.2973 30.082 15.2743 29.9321 15.2281C29.7245 15.1818 29.6668 15.0782 29.6551 14.836C29.6323 14.2245 29.6323 12.9326 29.6323 12.056C29.6323 11.8137 29.7014 11.6983 29.7705 11.6291C30.0359 11.3985 30.4628 11.237 30.8434 11.237C31.2125 11.237 31.4546 11.3523 31.6393 11.5023C31.893 11.7098 31.9738 12.0098 32.0084 12.229C32.066 12.725 32.043 13.7055 32.043 14.5591C32.043 15.0205 32.0084 15.1358 31.8355 15.1935C31.7546 15.2281 31.547 15.2743 31.3048 15.2972C31.224 15.3781 31.2471 15.7357 31.3048 15.8165C31.6393 15.8165 32.0315 15.7818 32.6083 15.7818C33.3234 15.7818 33.7849 15.8165 33.9695 15.8165C34.027 15.7472 34.0501 15.4127 34.004 15.3203ZM37.1993 10.9141C36.588 10.9141 36.2073 11.387 36.2073 12.1251C36.2073 12.875 36.5418 13.7401 37.4876 13.7401C37.6491 13.7401 37.9491 13.6708 38.0874 13.5093C38.3066 13.3018 38.4566 12.8865 38.4566 12.4481C38.4566 11.4907 37.9836 10.9141 37.1993 10.9141ZM37.1185 16.0125C36.8879 16.0125 36.7263 16.0817 36.6225 16.1395C36.138 16.4507 35.9189 16.7507 35.9189 17.1085C35.9189 17.4428 36.0458 17.7081 36.3226 17.9388C36.6571 18.2272 37.1185 18.3657 37.7068 18.3657C38.8834 18.3657 39.4025 17.7312 39.4025 17.1085C39.4025 16.67 39.1833 16.3816 38.7335 16.2202C38.4105 16.0817 37.8223 16.0125 37.1185 16.0125ZM37.1993 19.0117C36.4956 19.0117 35.988 18.8617 35.5498 18.5272C35.1229 18.2042 34.9384 17.7197 34.9384 17.3852C34.9384 17.293 34.9615 17.0391 35.1691 16.8085C35.2959 16.67 35.5729 16.4047 36.2304 15.9548C36.2534 15.9433 36.2649 15.9318 36.2649 15.9086C36.2649 15.8856 36.2418 15.8625 36.2188 15.8511C35.6766 15.6435 35.5151 15.3088 35.4689 15.1243V15.1012C35.4575 15.032 35.4344 14.9628 35.5383 14.8936C35.619 14.836 35.7344 14.7667 35.8611 14.6861C36.0573 14.5706 36.2649 14.4437 36.3918 14.3398C36.4149 14.3168 36.4149 14.2938 36.4149 14.2707C36.4149 14.2476 36.3918 14.2245 36.3686 14.2131C35.5614 13.9477 35.1576 13.3478 35.1576 12.4481C35.1576 11.8598 35.4229 11.3292 35.8958 10.9947C36.2188 10.741 37.0263 10.4295 37.5569 10.4295H37.5915C38.1336 10.441 38.4335 10.5563 38.8603 10.7063C39.091 10.7871 39.3103 10.8216 39.6103 10.8216C40.06 10.8216 40.2561 10.6832 40.4175 10.5218C40.4291 10.5448 40.4523 10.6026 40.4638 10.7525C40.4753 10.9025 40.4291 11.1216 40.3138 11.2831C40.2215 11.41 40.0139 11.5023 39.8063 11.5023H39.7485C39.5409 11.4792 39.4485 11.4561 39.4485 11.4561L39.4025 11.4792C39.391 11.5023 39.4025 11.5253 39.414 11.56L39.4256 11.5831C39.4486 11.6868 39.4948 11.9982 39.4948 12.0791C39.4948 13.025 39.1141 13.4401 38.7104 13.7516C38.3181 14.04 37.8684 14.2245 37.3608 14.2707C37.3493 14.2707 37.3033 14.2707 37.1993 14.2822C37.1416 14.2822 37.0609 14.2938 37.0493 14.2938H37.0378C36.9455 14.3168 36.7149 14.4322 36.7149 14.6282C36.7149 14.8012 36.8186 15.009 37.3146 15.0436C37.4184 15.0551 37.5221 15.0551 37.6376 15.0667C38.2951 15.1127 39.1141 15.1705 39.4948 15.2973C40.0254 15.4933 40.3599 15.9663 40.3599 16.5316C40.3599 17.3853 39.7486 18.1812 38.7335 18.6771C38.2375 18.8963 37.7414 19.0117 37.1993 19.0117ZM43.7743 10.9717C43.5321 10.9717 43.3129 11.0292 43.1514 11.1446C42.7016 11.4215 42.4709 11.9752 42.4709 12.7826C42.4709 14.2938 43.2321 15.3551 44.3165 15.3551C44.6395 15.3551 44.8933 15.2627 45.1124 15.0782C45.4469 14.8012 45.62 14.2476 45.62 13.4747C45.62 11.9752 44.8701 10.9716 43.7744 10.9716L43.7743 10.9717ZM43.982 15.9087C42.021 15.9087 41.3174 14.4668 41.3174 13.1172C41.3174 12.1713 41.698 11.4446 42.4593 10.9255C43.0015 10.591 43.6475 10.4065 44.2243 10.4065C45.7238 10.4065 46.7735 11.4792 46.7735 13.025C46.7735 14.0746 46.3583 14.9051 45.5623 15.4127C45.1816 15.6665 44.5241 15.9087 43.9819 15.9087H43.982ZM23.4263 10.9716C23.184 10.9716 22.9649 11.0292 22.8033 11.1446C22.3535 11.4215 22.1228 11.9752 22.1228 12.7826C22.1228 14.2938 22.884 15.3551 23.9684 15.3551C24.2914 15.3551 24.5451 15.2627 24.7644 15.0782C25.0988 14.8012 25.2719 14.2476 25.2719 13.4747C25.2719 11.9752 24.5336 10.9716 23.4263 10.9716ZM23.6339 15.9087C21.6729 15.9087 20.9693 14.4668 20.9693 13.1172C20.9693 12.1713 21.3499 11.4446 22.1111 10.9255C22.6534 10.591 23.2994 10.4065 23.8761 10.4065C25.3758 10.4065 26.4254 11.4792 26.4254 13.025C26.4254 14.0746 26.0101 14.9051 25.2141 15.4127C24.845 15.6665 24.1875 15.9087 23.6339 15.9087ZM10.4491 15.7933C10.426 15.7588 10.4029 15.655 10.4145 15.5281C10.4145 15.4357 10.4376 15.3781 10.4491 15.3551C10.6914 15.3203 10.8183 15.2857 10.9566 15.2512C11.1874 15.1935 11.2796 15.0667 11.2911 14.7783C11.3259 14.0862 11.3259 12.7711 11.3143 11.8598V11.8367C11.3143 11.733 11.3143 11.606 11.1874 11.5137C11.0028 11.3985 10.7836 11.2947 10.4953 11.2137C10.3915 11.1793 10.3223 11.1216 10.3338 11.0525C10.3338 10.9832 10.403 10.9025 10.553 10.8793C10.9336 10.8447 11.9255 10.6026 12.3178 10.4295C12.3409 10.4525 12.3755 10.5218 12.3755 10.6141L12.364 10.7408C12.3524 10.8678 12.3409 11.0178 12.3409 11.1677C12.3409 11.2138 12.3871 11.2485 12.4331 11.2485C12.4563 11.2485 12.4794 11.237 12.5024 11.2253C13.2406 10.6486 13.9096 10.441 14.2556 10.441C14.821 10.441 15.2594 10.7063 15.5939 11.26C15.6169 11.2947 15.64 11.3062 15.6746 11.3062C15.6976 11.3062 15.7321 11.2947 15.7438 11.2716C16.4244 10.7525 17.105 10.441 17.5548 10.441C18.6275 10.441 19.262 11.237 19.262 12.5866C19.262 12.9672 19.262 13.4632 19.2505 13.9132C19.2505 14.3168 19.239 14.686 19.239 14.9513C19.239 15.0088 19.3196 15.1935 19.4465 15.2281C19.608 15.3088 19.8273 15.3435 20.1156 15.3896H20.1271C20.1503 15.4703 20.1041 15.7702 20.058 15.828C19.9888 15.828 19.8849 15.828 19.7696 15.8165C19.4776 15.8012 19.1853 15.7935 18.8929 15.7933C18.1778 15.7933 17.8086 15.8048 17.4509 15.828C17.428 15.7357 17.4164 15.4588 17.4509 15.3896C17.6586 15.3551 17.7624 15.3203 17.8894 15.2858C18.1201 15.2166 18.1778 15.1127 18.1894 14.8128C18.1894 14.5937 18.2354 12.725 18.1661 12.2751C18.097 11.8137 17.7509 11.2716 16.9895 11.2716C16.7011 11.2716 16.2514 11.387 15.813 11.7213C15.79 11.7445 15.7668 11.8021 15.7668 11.8367V11.8483C15.813 12.0905 15.813 12.3675 15.813 12.7942V13.544C15.813 14.0631 15.8014 14.5476 15.813 14.9166C15.813 15.1705 15.963 15.2281 16.0899 15.2743C16.1591 15.2857 16.2051 15.2973 16.2629 15.3088C16.3666 15.332 16.4705 15.3551 16.632 15.3896C16.6551 15.4358 16.6551 15.5857 16.6205 15.7126C16.6089 15.7818 16.5858 15.8163 16.5743 15.828C16.1821 15.8165 15.7784 15.8048 15.1901 15.8048C15.0171 15.8048 14.7171 15.8165 14.4634 15.8165C14.2556 15.8165 14.0596 15.828 13.9444 15.828C13.9328 15.8048 13.9096 15.7242 13.9096 15.5972C13.9096 15.4935 13.9328 15.4127 13.9559 15.3896C14.0135 15.3781 14.0596 15.3666 14.1174 15.3666C14.2556 15.3435 14.3711 15.3203 14.4864 15.2973C14.6826 15.2397 14.7518 15.1358 14.7633 14.8821C14.7979 14.3053 14.8325 12.6558 14.7518 12.2405C14.6134 11.5715 14.2328 11.237 13.6213 11.237C13.2638 11.237 12.8138 11.41 12.4448 11.687C12.387 11.733 12.3409 11.8482 12.3409 11.9521V12.6327C12.3409 13.4632 12.3409 14.5015 12.3524 14.9513C12.364 15.0896 12.41 15.2512 12.6754 15.3088C12.7331 15.3203 12.8254 15.3435 12.9408 15.3551L13.1483 15.3896C13.1715 15.4588 13.1599 15.7357 13.1138 15.828C12.9984 15.828 12.86 15.8165 12.6984 15.8165C12.4563 15.8048 12.1448 15.7933 11.7988 15.7933C11.395 15.7933 11.1066 15.8048 10.8759 15.8165C10.7144 15.7933 10.5875 15.7933 10.4491 15.7933Z" fill="#442D22"/>
<path fill-rule="evenodd" clip-rule="evenodd" d="M4.38143 18.5619L3.90855 18.4002C3.90855 18.4002 3.9663 15.9895 3.10105 15.8165C2.52443 15.1474 3.19355 -12.5601 5.2698 15.7241C5.2698 15.7241 4.55455 16.0816 4.42768 16.6931C4.28918 17.293 4.38143 18.5619 4.38143 18.5619Z" fill="white"/>
<path fill-rule="evenodd" clip-rule="evenodd" d="M4.38143 18.5619L3.90855 18.4002C3.90855 18.4002 3.9663 15.9895 3.10105 15.8165C2.52443 15.1474 3.19355 -12.5601 5.2698 15.7241C5.2698 15.7241 4.55455 16.0816 4.42768 16.6931C4.28918 17.293 4.38143 18.5619 4.38143 18.5619Z" fill="black"/>
<path fill-rule="evenodd" clip-rule="evenodd" d="M4.63544 16.2317C4.63544 16.2317 8.77669 13.5094 7.80757 7.8455C6.87332 3.72762 4.67007 2.378 4.42782 1.85887C4.16257 1.48975 3.90869 0.843872 3.90869 0.843872L4.08182 12.2981C4.08182 12.3097 3.72419 15.8049 4.63557 16.2319" fill="white"/>
<path fill-rule="evenodd" clip-rule="evenodd" d="M4.63544 16.2317C4.63544 16.2317 8.77669 13.5094 7.80757 7.8455C6.87332 3.72762 4.67007 2.378 4.42782 1.85887C4.16257 1.48975 3.90869 0.843872 3.90869 0.843872L4.08182 12.2981C4.08182 12.3097 3.72419 15.8049 4.63557 16.2319" fill="#2E2E2E"/>
<path fill-rule="evenodd" clip-rule="evenodd" d="M3.66663 16.3816C3.66663 16.3816 -0.220869 13.7285 0.00988052 9.05686C0.229006 4.38511 2.97438 2.08961 3.50501 1.67436C3.85113 1.30523 3.86263 1.16673 3.88576 0.797607C4.12801 1.31673 4.08188 8.56086 4.11638 9.41436C4.22013 12.7019 3.93188 15.7589 3.66663 16.3816Z" fill="white"/>
<path fill-rule="evenodd" clip-rule="evenodd" d="M3.66663 16.3816C3.66663 16.3816 -0.220869 13.7285 0.00988052 9.05686C0.229006 4.38511 2.97438 2.08961 3.50501 1.67436C3.85113 1.30523 3.86263 1.16673 3.88576 0.797607C4.12801 1.31673 4.08188 8.56086 4.11638 9.41436C4.22013 12.7019 3.93188 15.7589 3.66663 16.3816Z" fill="#6C756C"/>
</svg>
