<svg width="65" height="44" viewBox="0 0 65 44" fill="none" xmlns="http://www.w3.org/2000/svg">
<path d="M32.8318 0.344971C28.4543 0.344971 24.6909 1.52645 21.7368 4.05855C18.8039 6.57243 16.8853 10.2321 15.821 14.7935C15.5886 15.789 16.0952 16.8094 17.0286 17.2262C17.9621 17.643 19.0599 17.3391 19.6461 16.5016C20.9971 14.5717 22.346 13.4121 23.642 12.817C24.8972 12.2407 26.2501 12.1239 27.7998 12.539C29.3637 12.9579 30.5744 14.1847 32.475 16.2518L32.5364 16.3186C33.9691 17.8769 35.7168 19.7779 38.1072 21.2528C40.5877 22.7833 43.6744 23.8116 47.7653 23.8116C52.1425 23.8116 55.9061 22.6301 58.8604 20.098C61.7928 17.5841 63.7116 13.9245 64.7761 9.36304C65.0082 8.36754 64.5017 7.34717 63.5682 6.93036C62.6351 6.51355 61.5368 6.81742 60.9506 7.65488C59.5998 9.58482 58.2511 10.7444 56.9549 11.3396C55.6996 11.9159 54.3467 12.0327 52.797 11.6176C51.2333 11.1987 50.0224 9.97185 48.122 7.90474L48.0606 7.83792C46.6278 6.2796 44.8802 4.37859 42.4897 2.90373C40.0092 1.37328 36.9226 0.344971 32.8318 0.344971Z" fill="black"/>
<path d="M17.8985 19.5449C13.521 19.5449 9.75754 20.7264 6.80343 23.2585C3.87057 25.7724 1.95194 29.432 0.887592 33.9936C0.655305 34.989 1.16185 36.0092 2.09527 36.426C3.02869 36.8429 4.12659 36.5391 4.71281 35.7016C6.06376 33.7717 7.41262 32.6121 8.70866 32.0169C9.96383 31.4406 11.3167 31.3238 12.8665 31.7389C14.4304 32.1578 15.641 33.3848 17.5416 35.452L17.603 35.5185C19.0357 37.0767 20.7835 38.9779 23.1739 40.4529C25.6544 41.9834 28.741 43.0116 32.8318 43.0116C37.2092 43.0116 40.9727 41.8302 43.927 39.2979C46.8595 36.784 48.7782 33.1245 49.8427 28.563C50.0749 27.5674 49.5684 26.5471 48.6349 26.1303C47.7017 25.7135 46.6035 26.0174 46.0173 26.8548C44.6664 28.7848 43.3176 29.9444 42.0216 30.5395C40.7664 31.1158 39.4135 31.2326 37.8637 30.8175C36.2999 30.3986 35.0893 29.1718 33.1886 27.1047L33.1272 27.0379C31.6945 25.4796 29.9468 23.5785 27.5563 22.1036C25.0759 20.5732 21.9892 19.5449 17.8985 19.5449Z" fill="black"/>
</svg>
