<svg width="33" height="51" viewBox="0 0 33 51" fill="none" xmlns="http://www.w3.org/2000/svg">
<path fill-rule="evenodd" clip-rule="evenodd" d="M7.72134 18.4555C3.91659 18.4555 0.832458 21.5393 0.832458 25.3439C0.832458 29.1487 3.91673 32.2329 7.72134 32.2329H14.6102V25.4828C14.6096 25.4367 14.6094 25.3903 14.6094 25.3439C14.6094 25.2977 14.6096 25.2513 14.6102 25.2052V18.4555H7.72134ZM14.6102 14.4555H7.72134C3.91673 14.4555 0.832458 11.3713 0.832458 7.56662C0.832458 3.762 3.91673 0.677734 7.72134 0.677734H14.6102V14.4555ZM18.6102 0.677734V14.4554L25.4974 14.4551C29.3019 14.4551 32.3872 11.3711 32.3872 7.56662C32.3872 3.762 29.303 0.677734 25.4982 0.677734H18.6102ZM25.4976 18.4551C21.7302 18.4554 18.6691 21.4801 18.6102 25.2335V25.4543C18.6691 29.2081 21.7304 32.2329 25.4982 32.2329C29.303 32.2329 32.3872 29.1487 32.3872 25.3439C32.3872 21.5393 29.3022 18.4551 25.4976 18.4551ZM7.72134 36.2329C3.91683 36.2329 0.832031 39.3177 0.832031 43.1225C0.832031 46.9273 3.91627 50.0116 7.72091 50.0116C11.5256 50.0116 14.6099 46.9273 14.6099 43.1225L14.6102 36.2329H7.72134Z" fill="#1C274C"/>
</svg>
