<svg width="64" height="65" viewBox="0 0 64 65" fill="none" xmlns="http://www.w3.org/2000/svg">
<path d="M45.538 0.015625C43.048 0.037625 40.58 0.391625 38.184 1.08763L38.018 1.14163C36.516 0.879625 34.986 0.735625 33.466 0.703625C30.32 0.649625 27.62 1.40962 25.444 2.68162C23.298 1.94362 18.85 0.649625 14.162 0.911625C10.904 1.08763 7.34002 2.07763 4.69202 4.86963C2.06802 7.65163 0.67402 11.9636 0.96402 17.8396C1.04602 19.4536 1.50602 22.0876 2.27602 25.5136C3.03602 28.9316 4.11002 32.9316 5.45402 36.5876C6.79802 40.2336 8.26402 43.5136 10.558 45.7416C11.702 46.8556 13.286 47.8056 15.15 47.7236C16.454 47.6696 17.63 47.0976 18.652 46.2536C19.15 46.9096 19.684 47.1896 20.162 47.4516C20.778 47.7856 21.36 48.0136 21.976 48.1616C23.08 48.4416 24.966 48.8076 27.174 48.4316C27.924 48.3056 28.716 48.0576 29.508 47.7136C29.54 48.5876 29.572 49.4516 29.602 50.3276C29.716 53.0876 29.792 55.6396 30.612 57.8796C30.748 58.2456 31.114 60.1196 32.55 61.7856C33.998 63.4516 36.808 64.4836 40.028 63.7956C42.29 63.3156 45.174 62.4416 47.092 59.7136C48.988 57.0256 49.842 53.1616 50.01 46.8896C50.05 46.5456 50.104 46.2656 50.154 45.9936L50.602 46.0356H50.656C53.072 46.1396 55.698 45.7956 57.896 44.7736C59.832 43.8776 61.302 42.9716 62.374 41.3576C62.636 40.9596 62.936 40.4716 63.012 39.6376C63.094 38.8156 62.614 37.5116 61.822 36.9096C60.24 35.7016 59.24 36.1596 58.166 36.3896C57.116 36.6196 56.04 36.7416 54.968 36.7736C58.05 31.5876 60.258 26.0676 61.52 21.1896C62.27 18.3036 62.688 15.6476 62.718 13.3256C62.76 11.0036 62.564 8.95162 61.176 7.17163C56.822 1.61963 50.706 0.075625 45.978 0.025625C45.832 0.025625 45.688 0.025625 45.54 0.025625L45.538 0.015625ZM45.412 1.72563C49.882 1.68362 55.598 2.93363 59.702 8.18163C60.63 9.35962 60.902 11.0776 60.87 13.2036C60.838 15.3296 60.444 17.8596 59.724 20.6416C58.34 26.0396 55.702 32.3076 52.006 37.9456C52.132 38.0396 52.276 38.1216 52.422 38.1756C53.192 38.4976 54.952 38.7676 58.472 38.0496C59.358 37.8596 60.006 37.7376 60.682 38.2476C61.016 38.5276 61.192 38.9456 61.17 39.3836C61.13 39.7056 61.016 40.0176 60.816 40.2796C60.138 41.2976 58.798 42.2696 57.078 43.0716C55.558 43.7776 53.368 44.1436 51.444 44.1656C50.466 44.1756 49.57 44.1016 48.806 43.8616L48.766 43.8536C48.472 46.6756 47.798 52.2596 47.358 54.7996C47.006 56.8496 46.39 58.4876 45.214 59.7056C44.036 60.9356 42.38 61.6636 40.14 62.1436C37.37 62.7376 35.358 62.1016 34.058 61.0076C32.758 59.9136 32.162 58.4556 31.808 57.5696C31.56 56.9556 31.434 56.1636 31.31 55.0996C31.184 54.0376 31.102 52.7456 31.038 51.2776C30.956 49.0376 30.924 46.7976 30.956 44.5476C29.802 45.6116 28.364 46.3076 26.82 46.5796C24.978 46.8916 23.342 46.5796 22.364 46.3396C21.884 46.2136 21.414 46.0376 20.978 45.7976C20.52 45.5576 20.092 45.2876 19.802 44.7436C19.634 44.4316 19.584 44.0696 19.656 43.7256C19.738 43.3716 19.946 43.0696 20.23 42.8396C20.76 42.4096 21.46 42.1736 22.51 41.9536C24.428 41.5556 25.104 41.2876 25.51 40.9616C25.854 40.6916 26.252 40.1296 26.936 39.3056C26.936 39.2756 26.936 39.2336 26.926 39.2016C25.688 39.1616 24.478 38.8396 23.384 38.2436C22.99 38.6596 20.936 40.8276 18.448 43.8276C17.406 45.0756 16.25 45.7956 15.022 45.8496C13.804 45.8996 12.696 45.2876 11.76 44.3796C9.88602 42.5556 8.38402 39.4196 7.08202 35.8776C5.78002 32.3356 4.72802 28.3896 3.96802 25.0356C3.21802 21.6696 2.77002 18.9616 2.70602 17.6596C2.42602 12.1076 3.72802 8.36963 5.95602 6.00362C8.18402 3.63762 11.238 2.75362 14.218 2.57763C19.562 2.27562 24.644 4.13963 25.666 4.53562C27.644 3.19163 30.196 2.35963 33.384 2.40963C34.896 2.43163 36.394 2.62762 37.864 2.99362L37.918 2.96163C38.564 2.74363 39.22 2.54562 39.886 2.40162C41.7 1.97162 43.552 1.75362 45.406 1.72362L45.412 1.72563ZM45.818 3.50563H45.424C43.904 3.52362 42.37 3.70363 40.882 4.02563C44.204 5.49563 46.714 7.75362 48.484 10.0256C49.714 11.5876 50.724 13.3056 51.494 15.1396C51.798 15.8496 51.996 16.4416 52.1 16.8996C52.162 17.1296 52.194 17.3256 52.214 17.5236C52.214 17.6276 52.224 17.7336 52.172 17.9096C52.172 17.9196 52.162 17.9416 52.162 17.9516C52.248 20.2856 51.664 21.8656 51.588 24.0956C51.538 25.7116 51.954 27.6076 52.058 29.6796C52.152 31.6256 51.914 33.7616 50.652 35.8656C50.756 35.9916 50.85 36.1156 50.954 36.2516C54.298 30.9796 56.714 25.1576 57.996 20.1876C58.684 17.5096 59.046 15.0836 59.078 13.1696C59.11 11.2516 58.756 9.85563 58.296 9.27363C54.712 4.69963 49.87 3.53163 45.816 3.50362L45.818 3.50563ZM33.036 4.19163C29.892 4.20163 27.63 5.15162 25.914 6.57762C24.14 8.05762 22.954 10.0676 22.184 12.1396C21.256 14.5876 20.934 16.9616 20.808 18.5776L20.85 18.5556C21.8 18.0256 23.048 17.4836 24.392 17.1816C25.726 16.8676 27.174 16.7736 28.474 17.2856C29.788 17.7836 30.86 18.9816 31.256 20.7836C33.134 29.4716 30.674 32.7016 29.768 35.1376C29.424 36.0236 29.122 36.9196 28.882 37.8356C28.996 37.8136 29.112 37.7816 29.226 37.7716C29.872 37.7216 30.37 37.9296 30.664 38.0536C31.582 38.4376 32.206 39.2296 32.55 40.1356C32.632 40.3756 32.694 40.6236 32.736 40.8956C32.768 40.9996 32.79 41.1136 32.79 41.2296C32.686 44.5516 32.694 47.8756 32.82 51.1976C32.884 52.6356 32.978 53.8956 33.092 54.8956C33.206 55.8856 33.362 56.6456 33.468 56.9056C33.81 57.7596 34.31 58.8736 35.218 59.6336C36.114 60.3956 37.404 60.8956 39.77 60.3956C41.82 59.9476 43.082 59.3416 43.924 58.4676C44.77 57.5816 45.268 56.3636 45.59 54.4996C46.08 51.6976 47.048 43.5716 47.164 42.0516C47.114 40.8936 47.278 40.0096 47.654 39.3316C48.028 38.6436 48.612 38.2176 49.124 37.9876C49.372 37.8736 49.612 37.8016 49.81 37.7376C49.602 37.4476 49.384 37.1556 49.164 36.8736C48.436 35.9876 47.83 34.9996 47.382 33.9476C47.174 33.5076 46.944 33.0696 46.694 32.6536C46.342 32.0196 45.894 31.2156 45.424 30.3096C44.486 28.5176 43.466 26.3316 42.934 24.2056C42.404 22.0796 42.332 19.8836 43.686 18.3416C44.884 16.9656 46.998 16.3956 50.152 16.7176C50.058 16.4356 50.008 16.1956 49.85 15.8316C49.132 14.1436 48.194 12.5596 47.068 11.1216C44.39 7.69562 40.046 4.29763 33.35 4.18363L33.036 4.19163ZM15.33 4.32762C14.996 4.32762 14.652 4.33763 14.32 4.35962C11.622 4.51762 9.08002 5.29563 7.25602 7.22363C5.43402 9.16162 4.23802 12.3176 4.49602 17.5576C4.55002 18.5576 4.97602 21.3276 5.71402 24.6296C6.45602 27.9336 7.50602 31.8196 8.76802 35.2556C10.026 38.6816 11.55 41.6716 13.008 43.0876C13.736 43.7856 14.37 44.0776 14.944 44.0576C15.518 44.0256 16.216 43.6916 17.07 42.6716C18.622 40.7976 20.228 38.9836 21.894 37.2136C19.496 35.1196 18.32 31.9556 18.79 28.8076C19.06 26.8396 19.102 24.9936 19.06 23.5356C19.03 22.1196 18.934 21.1836 18.934 20.5896C18.934 20.5676 18.934 20.5576 18.934 20.5356V20.5256L18.924 20.5076C18.924 17.4336 19.468 14.3936 20.508 11.5076C21.258 9.51562 22.364 7.50763 24.028 5.86963C22.394 5.32763 19.486 4.51762 16.342 4.35962C16.008 4.33763 15.662 4.32762 15.33 4.32762ZM48.39 18.4096C46.58 18.4416 45.568 18.9116 45.028 19.5136C44.276 20.3796 44.204 21.8996 44.674 23.7756C45.14 25.6496 46.112 27.7436 47.018 29.4856C47.466 30.3596 47.904 31.1416 48.256 31.7756C48.622 32.4216 48.882 32.8696 49.038 33.2656C49.184 33.6196 49.352 33.9316 49.518 34.2236C50.216 32.7436 50.342 31.2956 50.268 29.7756C50.174 27.9016 49.738 25.9836 49.81 24.0476C49.884 21.7756 50.332 20.2956 50.364 18.5456C49.716 18.4636 49.05 18.4096 48.394 18.4096H48.39ZM26.434 18.7256C25.882 18.7256 25.33 18.7976 24.788 18.9236C23.714 19.1856 22.684 19.5796 21.714 20.1216C21.392 20.2976 21.08 20.4976 20.788 20.7276L20.724 20.7776C20.746 21.1756 20.818 22.1116 20.85 23.5076C20.882 25.0276 20.85 26.9636 20.56 29.0596C19.914 33.6216 23.226 37.3936 27.112 37.4036C27.342 36.4656 27.714 35.5156 28.09 34.5176C29.172 31.5996 31.298 29.4756 29.506 21.1636C29.216 19.8096 28.632 19.2576 27.828 18.9456C27.38 18.7876 26.914 18.7156 26.434 18.7276V18.7256ZM47.548 19.2656H47.684C47.85 19.2756 48.018 19.2876 48.162 19.3276C48.298 19.3596 48.424 19.4016 48.528 19.4736C48.632 19.5356 48.704 19.6396 48.726 19.7636V19.7856C48.726 19.9116 48.694 20.0356 48.632 20.1516C48.55 20.2956 48.456 20.4316 48.342 20.5456C48.07 20.8476 47.704 21.0476 47.31 21.1076C46.924 21.1616 46.54 21.0576 46.216 20.8376C46.09 20.7416 45.966 20.6376 45.872 20.5236C45.778 20.4296 45.726 20.3056 45.704 20.1796C45.696 20.0576 45.726 19.9316 45.808 19.8376C45.904 19.7416 46.008 19.6596 46.122 19.5976C46.38 19.4516 46.724 19.3476 47.122 19.2936C47.266 19.2756 47.412 19.2636 47.548 19.2536V19.2656ZM26.692 19.7136C26.828 19.7136 26.986 19.7236 27.132 19.7436C27.548 19.8076 27.902 19.9116 28.182 20.0776C28.318 20.1416 28.444 20.2456 28.536 20.3596C28.64 20.4856 28.69 20.6396 28.682 20.8076C28.65 20.9616 28.586 21.1096 28.482 21.2236C28.368 21.3596 28.244 21.4736 28.098 21.5676C27.754 21.8176 27.328 21.9216 26.9 21.8696C26.47 21.7976 26.076 21.5896 25.786 21.2676C25.66 21.1316 25.556 20.9856 25.472 20.8296C25.378 20.6836 25.338 20.5176 25.358 20.3496C25.4 20.0696 25.64 19.9116 25.87 19.8296C26.132 19.7436 26.412 19.7156 26.692 19.7256V19.7136ZM50.85 39.2956H50.84C50.456 39.4416 50.134 39.4956 49.862 39.6216C49.582 39.7256 49.36 39.9336 49.228 40.1916C49.05 40.4956 48.916 41.0376 48.956 41.9616C49.07 42.0476 49.206 42.1076 49.354 42.1516C49.802 42.2876 50.572 42.3816 51.426 42.3696C53.124 42.3476 55.218 41.9536 56.332 41.4316C57.238 41.0156 58.092 40.4536 58.842 39.7976C55.124 40.5576 53.032 40.3596 51.738 39.8296C51.426 39.6936 51.122 39.5156 50.85 39.2956ZM29.434 39.5456H29.38C29.236 39.5556 29.036 39.6096 28.63 40.0476C27.702 41.0876 27.38 41.7436 26.62 42.3496C25.85 42.9636 24.86 43.2876 22.87 43.6936C22.246 43.8196 21.88 43.9636 21.64 44.0776C21.712 44.1416 21.712 44.1636 21.826 44.2136C22.12 44.3816 22.492 44.5176 22.796 44.5996C23.65 44.8076 25.044 45.0576 26.514 44.8076C27.972 44.5576 29.492 43.8576 30.796 42.0376C31.026 41.7256 31.044 41.2556 30.858 40.7556C30.672 40.2676 30.264 39.8296 29.984 39.7156C29.806 39.6296 29.618 39.5796 29.432 39.5476L29.434 39.5456Z" fill="black"/>
</svg>
