<svg width="65" height="39" viewBox="0 0 65 39" fill="none" xmlns="http://www.w3.org/2000/svg">
<path d="M64.0215 37.0132C63.0901 37.3655 62.0619 37.3648 61.1309 37.0111C60.2 36.6573 59.4307 35.9752 58.9682 35.0932L49.7682 22.3706L48.4349 20.5919L37.7602 35.1092C37.3255 35.9542 36.5979 36.6119 35.7135 36.9593C34.8291 37.3068 33.8485 37.3203 32.9549 36.9972L46.7095 18.5439L33.9149 1.87456C34.8348 1.54303 35.841 1.53864 36.7638 1.86212C37.6867 2.1856 38.4699 2.8172 38.9815 3.65057L48.5175 16.5306L58.1068 3.7039C58.5449 2.874 59.2727 2.234 60.1517 1.90557C61.0308 1.57715 61.9999 1.5832 62.8748 1.92256L57.9095 8.5119L51.1842 17.2666C50.9974 17.4332 50.848 17.6374 50.7456 17.8658C50.6433 18.0942 50.5904 18.3416 50.5904 18.5919C50.5904 18.8422 50.6433 19.0896 50.7456 19.318C50.848 19.5464 50.9974 19.7506 51.1842 19.9172L63.9949 37.0159L64.0215 37.0132ZM0.0268497 18.3146L1.14685 12.7812C4.22418 1.8399 16.7682 -2.7121 25.3975 4.06123C30.4509 8.0319 31.7122 13.6532 31.4642 19.9892H2.99752C2.53618 31.3039 10.7015 38.1359 21.1415 34.6452C22.8339 34.036 24.3488 33.0165 25.5505 31.6781C26.7521 30.3396 27.603 28.724 28.0269 26.9759C28.5789 25.1999 29.4882 24.8959 31.1575 25.4079C30.8793 27.5743 30.1135 29.6493 28.9177 31.477C27.7219 33.3047 26.1272 34.8374 24.2535 35.9599C21.1586 37.6528 17.6077 38.3237 14.1085 37.8769C10.6093 37.43 7.34098 35.8882 4.77085 33.4719C2.22959 30.6116 0.69372 26.9985 0.397516 23.1839C0.397516 22.5572 0.184183 21.9706 0.040183 21.4079C0.0272018 20.3777 0.0209794 19.3475 0.0215164 18.3172L0.0268497 18.3146ZM3.03218 17.5519H28.7762C28.6162 9.34923 23.4402 3.53057 16.5362 3.47723C8.85085 3.37057 3.35218 9.06123 3.01352 17.5146L3.03218 17.5519Z" fill="black"/>
</svg>
