<svg width="59" height="65" viewBox="0 0 59 65" fill="none" xmlns="http://www.w3.org/2000/svg">
<path d="M29.3548 64.0116C28.4439 64.0116 27.5935 63.7767 26.8042 63.366L18.7268 58.7298C17.5122 58.0842 18.1195 57.8495 18.4839 57.7319C20.1236 57.2039 20.4273 57.0866 22.1278 56.1474C22.31 56.03 22.5529 56.0887 22.7351 56.206L28.9298 59.786C29.1727 59.9034 29.4762 59.9034 29.6586 59.786L53.8903 46.2292C54.1332 46.1119 54.2548 45.8772 54.2548 45.5836V18.5288C54.2548 18.2354 54.1332 18.0006 53.8903 17.8832L29.6586 4.38514C29.4156 4.26778 29.1119 4.26778 28.9298 4.38514L4.6978 17.8832C4.4549 18.0006 4.33343 18.2941 4.33343 18.5288V45.5836C4.33343 45.8186 4.4549 46.1119 4.6978 46.2292L11.3175 49.9266C14.9007 51.6871 17.1478 49.6332 17.1478 47.5791V20.8763C17.1478 20.5242 17.4514 20.1721 17.8766 20.1721H20.9739C21.3383 20.1721 21.7026 20.4655 21.7026 20.8763V47.5791C21.7026 52.2154 19.0912 54.9151 14.5363 54.9151C13.1395 54.9151 12.0463 54.9151 8.94903 53.4479L2.5722 49.9266C0.993191 49.0463 0.0214844 47.4031 0.0214844 45.6423V18.5875C0.0214844 16.8269 0.993191 15.1836 2.5722 14.3033L26.8042 0.746529C28.3223 -0.0750961 30.3874 -0.0750961 31.9055 0.746529L56.1375 14.3033C57.7164 15.1836 58.6882 16.8269 58.6882 18.5875V45.6423C58.6882 47.4031 57.7164 49.0463 56.1375 49.9266L31.9055 63.4834C31.1162 63.8354 30.205 64.0116 29.3548 64.0116ZM36.8247 45.4076C26.1967 45.4076 24.0104 40.7127 24.0104 36.722C24.0104 36.3698 24.314 36.0178 24.7394 36.0178H27.8972C28.2618 36.0178 28.5652 36.2524 28.5652 36.6044C29.0511 39.7148 30.4479 41.241 36.8855 41.241C41.9871 41.241 44.1732 40.1258 44.1732 37.485C44.1732 35.9591 43.566 34.8439 35.6103 34.081C28.9906 33.4354 24.8607 32.0268 24.8607 26.9212C24.8607 22.1674 28.9906 19.3504 35.9138 19.3504C43.6874 19.3504 47.5135 21.9327 47.9994 27.5666C47.9994 27.7428 47.9386 27.9188 47.8172 28.0948C47.6956 28.2122 47.5135 28.3295 47.3314 28.3295H44.1732C43.8698 28.3295 43.566 28.0948 43.5052 27.8015C42.7764 24.5736 40.8938 23.5172 35.9138 23.5172C30.3266 23.5172 29.6586 25.3952 29.6586 26.8036C29.6586 28.5058 30.4479 29.0338 37.9788 29.973C45.4487 30.9119 48.9711 32.2618 48.9711 37.3087C48.9103 42.4732 44.5378 45.4076 36.8247 45.4076Z" fill="black"/>
</svg>
