<svg width="65" height="65" viewBox="0 0 65 65" fill="none" xmlns="http://www.w3.org/2000/svg">
<path fill-rule="evenodd" clip-rule="evenodd" d="M0.751539 0.136597C0.680289 0.146972 0.685539 0.232847 0.690664 0.318847C0.690664 21.5273 0.690664 42.7326 0.690664 63.9406C21.8612 64.0825 43.2917 63.9608 64.563 64.0013C64.563 42.7127 64.563 21.4251 64.563 0.136597C43.2933 0.136597 22.0214 0.136597 0.751539 0.136597ZM33.1122 56.595C31.6344 58.0848 29.3024 58.9622 26.4335 58.9622C21.7282 58.9622 19.1157 56.6697 17.448 53.4983C19.0533 52.4733 20.6938 51.4831 22.366 50.524C23.048 52.4317 25.3518 54.5765 27.9514 53.2561C29.5993 52.4187 29.409 49.8798 29.409 47.1243C29.409 41.4027 29.409 34.8021 29.409 29.6403C29.4038 29.5543 29.3987 29.4685 29.4693 29.4581C31.4327 29.4581 33.3959 29.4581 35.3588 29.4581C35.3588 34.0566 35.3588 39.2583 35.3588 44.1492C35.3588 49.474 35.7393 53.9476 33.1122 56.595ZM59.4625 51.3137C59.1283 56.2992 55.0572 58.9466 49.5663 58.9622C44.1835 58.9777 40.7383 56.5856 38.6372 52.8913C40.1478 51.8517 41.8594 51.0142 43.434 50.0386C44.694 52.0087 46.8762 53.9023 50.1127 53.6201C52.129 53.4443 54.4697 51.8007 53.1483 49.3098C52.5074 48.1023 50.9588 47.489 49.5663 46.8817C45.1473 44.9537 39.9628 43.1853 40.4587 36.2577C40.6245 33.9435 41.6902 32.3171 43.0698 31.1582C44.4837 29.9707 46.3773 29.1748 48.8984 29.0943C53.477 28.9477 55.9888 30.9843 57.702 33.8298C56.244 34.9412 54.6378 35.9058 53.0269 36.865C52.4983 35.2406 49.9464 33.6577 47.8054 34.6188C46.8318 35.0555 45.9569 36.339 46.4699 37.8968C46.9274 39.2862 48.7935 40.0467 50.2948 40.6898C54.8388 42.6348 59.9169 44.5357 59.4625 51.3137Z" fill="black"/>
</svg>
