<svg width="57" height="65" viewBox="0 0 57 65" fill="none" xmlns="http://www.w3.org/2000/svg">
<path d="M0.562988 0.137024L5.68849 57.6269L28.6892 64.0116L51.7536 57.6179L56.8847 0.137024H0.562988ZM46.1931 13.7801L45.8722 17.3546L45.7312 18.9398H45.7079H28.7239H28.6992H18.7494L19.3937 26.1599H28.6992H28.7239H43.1892H45.0894L44.9172 28.0531L43.2604 46.6164L43.1542 47.8068L28.7239 51.8061V51.8076L28.6915 51.8166L14.2481 47.8069L13.2602 36.7361H16.5225H20.3382L20.8402 42.3594L28.6927 44.48L28.6992 44.4783V44.4775L36.5637 42.3554L37.3815 33.2106H28.7239H28.6992H12.9452L11.2124 13.7801L11.0435 11.8888H28.6994H28.7239H46.3619L46.1931 13.7801Z" fill="black"/>
</svg>
