<svg width="58" height="65" viewBox="0 0 58 65" fill="none" xmlns="http://www.w3.org/2000/svg">
<path d="M57.6625 0.136902L52.3388 57.8012L29.2733 64.0117L6.20739 57.8012L0.884766 0.136902H57.6625ZM46.9349 11.862H29.2525H11.2569L12.1175 18.8255H29.2525H30.215L29.2525 19.2262L12.7438 26.1019L13.2913 32.9085L29.2525 32.9603L37.8073 32.9874L37.2596 42.0632L29.2524 44.3175V44.3104L29.1868 44.3287L21.4538 42.3765L20.9845 36.7428H20.9589H13.7861H13.7609L14.6998 47.6187L29.2526 51.9223V51.9145L29.2789 51.9223L43.7538 47.697L45.6314 26.1019H29.2526H29.2123L29.2526 26.0844L46.2314 18.8255L46.9349 11.862Z" fill="black"/>
</svg>
