<svg width="65" height="65" viewBox="0 0 65 65" fill="none" xmlns="http://www.w3.org/2000/svg">
<path d="M32.6625 26.9716C33.6465 26.9716 34.6085 27.2628 35.4273 27.8084C36.2462 28.354 36.8853 29.1297 37.2643 30.0378C37.6432 30.9459 37.745 31.9458 37.5569 32.9116C37.3688 33.8775 36.8991 34.7661 36.207 35.4655C35.515 36.165 34.6314 36.6441 33.6676 36.8425C32.7039 37.0409 31.7029 36.9497 30.7909 36.5805C29.8788 36.2112 29.0964 35.5803 28.5421 34.7673C27.9878 33.9543 27.6864 32.9955 27.6758 32.0116C27.6723 31.3532 27.7985 30.7006 28.0472 30.091C28.2959 29.4814 28.6623 28.9268 29.1253 28.4588C29.5884 27.9908 30.1391 27.6186 30.746 27.3634C31.3529 27.1082 32.0042 26.9751 32.6625 26.9716ZM20.3158 53.3449C21.9958 54.3582 25.6492 52.8116 29.9159 48.8116C28.4898 47.191 27.1459 45.5 25.8892 43.7449C23.7383 43.504 21.6019 43.148 19.4892 42.6782C18.1292 48.3849 18.6358 52.3049 20.3158 53.3449ZM22.2092 38.0382L21.4359 36.6782C21.1344 37.4273 20.8762 38.193 20.6625 38.9716C21.3825 39.1316 22.1825 39.2649 23.0092 39.3982L22.2092 38.0382ZM39.6492 36.0116L41.8092 32.0116L39.6492 28.0116C38.8492 26.5982 37.9958 25.3449 37.2225 24.0916C35.7825 24.0116 34.2625 24.0116 32.6625 24.0116C31.0625 24.0116 29.5425 24.0116 28.1025 24.0116C27.3292 25.2649 26.4759 26.5182 25.6758 27.9316L23.5159 32.0116L25.6758 36.0116C26.4759 37.4249 27.3292 38.6782 28.1025 39.9316C29.5425 39.9316 31.0625 39.9316 32.6625 39.9316C34.2625 39.9316 35.7825 39.9316 37.2225 39.9316C37.9958 38.6782 38.8492 37.4249 39.6492 36.0116ZM32.6625 18.0916C32.1559 18.6782 31.6225 19.2916 31.0892 20.0116H34.2359C33.7025 19.2916 33.1692 18.6782 32.6625 18.0916ZM32.6625 45.9316C33.1692 45.3449 33.7025 44.7316 34.2359 44.0116H31.0892C31.6225 44.7316 32.1559 45.3449 32.6625 45.9316ZM44.9825 10.6782C43.3292 9.6649 39.6492 11.2116 35.4092 15.2116C36.8352 16.8321 38.1791 18.5231 39.4359 20.2782C41.5848 20.4839 43.7212 20.8043 45.8359 21.2382C47.1959 15.5316 46.6892 11.6116 44.9825 10.5716M43.1159 25.8782L43.8892 27.2382C44.1906 26.4892 44.4488 25.7235 44.6625 24.9449C43.9425 24.7849 43.1425 24.6516 42.3158 24.5182L43.1159 25.8782ZM46.9825 7.21157C50.9025 9.45157 51.3292 15.3449 49.6492 22.2249C56.4225 24.2249 61.3025 27.5582 61.3025 32.0382C61.3025 36.5182 56.4225 39.8516 49.6492 41.8516C51.3025 48.7316 50.8759 54.6249 46.9825 56.8649C43.0892 59.1049 37.7825 56.5449 32.6625 51.6649C27.5425 56.5449 22.2358 59.1049 18.3158 56.8649C14.3958 54.6249 13.9958 48.8649 15.6492 41.8516C8.87585 39.8516 3.99585 36.5182 3.99585 32.0382C3.99585 27.5582 8.87585 24.1982 15.6492 22.1982C13.9958 15.3182 14.4225 9.4249 18.3158 7.1849C22.2092 4.9449 27.5425 7.5049 32.6625 12.3849C37.7825 7.5049 43.0892 4.9449 46.9825 7.1849M46.2092 32.0116C47.1353 33.9746 47.9543 35.9865 48.6625 38.0382C54.2625 36.3582 57.4092 33.9582 57.4092 32.0116C57.4092 30.0649 54.1825 27.6649 48.6625 25.9849C47.9543 28.0367 47.1353 30.0485 46.2092 32.0116ZM19.1159 32.0116C18.1897 30.0485 17.3707 28.0367 16.6625 25.9849C11.0625 27.6649 7.91585 30.0649 7.91585 32.0116C7.91585 33.9582 11.1425 36.3582 16.6625 38.0382C17.3707 35.9865 18.1897 33.9746 19.1159 32.0116ZM43.1159 38.0382L42.3158 39.3982C43.1425 39.3982 43.9425 39.1316 44.6625 38.9716C44.4488 38.193 44.1906 37.4273 43.8892 36.6782L43.1159 38.0382ZM35.3292 48.8116C39.5692 52.8116 43.3292 54.3582 44.9025 53.3449C46.4759 52.3316 47.1159 48.4916 45.7559 42.6782C43.6412 43.1121 41.5048 43.4326 39.3559 43.6382C38.1021 45.4297 36.7581 47.1564 35.3292 48.8116ZM22.2092 25.9849L23.0092 24.6249C22.1825 24.6249 21.3825 24.8916 20.6625 25.0516C20.8762 25.8302 21.1344 26.5959 21.4359 27.3449L22.2092 25.9849ZM29.9958 15.2116C25.6758 11.2116 21.9958 9.6649 20.3158 10.6782C18.6358 11.6916 18.1292 15.5316 19.4892 21.3449C21.6039 20.911 23.7403 20.5906 25.8892 20.3849C27.1689 18.5915 28.5396 16.8648 29.9958 15.2116Z" fill="black"/>
</svg>
