<svg width="55" height="41" viewBox="0 0 55 41" fill="none" xmlns="http://www.w3.org/2000/svg">
<path d="M32.5806 40.0116H37.9139C40.8595 40.0116 43.2472 37.6239 43.2472 34.6783V28.1759C43.2472 25.7284 44.9128 23.5954 47.287 23.0018L51.327 21.9916C52 21.8234 52 20.8666 51.327 20.6983L47.287 19.6882C44.9128 19.0946 43.2472 16.9615 43.2472 14.5142V2.67828H32.5806" stroke="#33363F" stroke-width="5.33333"/>
<path d="M21.9139 2.67828H16.5805C13.635 2.67828 11.2472 5.0661 11.2472 8.01162V14.5142C11.2472 16.9615 9.58163 19.0946 7.20739 19.6882L3.16758 20.6983C2.49427 20.8666 2.49427 21.8234 3.16758 21.9916L7.20739 23.0018C9.58163 23.5954 11.2472 25.7284 11.2472 28.1759V40.0116H21.9139" stroke="#33363F" stroke-width="5.33333"/>
</svg>
