<svg width="35" height="34" viewBox="0 0 35 34" fill="none" xmlns="http://www.w3.org/2000/svg">
<path d="M30.625 0C31.7853 0 32.8981 0.445542 33.7186 1.23861C34.5391 2.03168 35 3.10732 35 4.22889V29.6022C35 30.7238 34.5391 31.7994 33.7186 32.5925C32.8981 33.3856 31.7853 33.8311 30.625 33.8311H4.375C3.21468 33.8311 2.10188 33.3856 1.28141 32.5925C0.460936 31.7994 0 30.7238 0 29.6022V4.22889C0 3.10732 0.460936 2.03168 1.28141 1.23861C2.10188 0.445542 3.21468 0 4.375 0L30.625 0ZM12.915 22.8423L21.875 14.1816V20.0344C21.875 20.3148 21.9902 20.5837 22.1954 20.7819C22.4005 20.9802 22.6787 21.0916 22.9688 21.0916C23.2588 21.0916 23.537 20.9802 23.7421 20.7819C23.9473 20.5837 24.0625 20.3148 24.0625 20.0344V11.6294C24.0625 11.3491 23.9473 11.0801 23.7421 10.8819C23.537 10.6836 23.2588 10.5722 22.9688 10.5722H14.2734C13.9834 10.5722 13.7052 10.6836 13.5 10.8819C13.2949 11.0801 13.1797 11.3491 13.1797 11.6294C13.1797 11.9098 13.2949 12.1787 13.5 12.377C13.7052 12.5753 13.9834 12.6867 14.2734 12.6867H20.3284L11.3684 21.3474C11.1692 21.5468 11.059 21.8139 11.0615 22.0911C11.0639 22.3683 11.179 22.6334 11.3818 22.8295C11.5846 23.0255 11.8589 23.1367 12.1457 23.1391C12.4324 23.1415 12.7087 23.0349 12.915 22.8423Z" fill="black" fill-opacity="0.72"/>
</svg>
