<svg width="100" height="100" viewBox="0 0 100 100" fill="none" xmlns="http://www.w3.org/2000/svg">
<path d="M56.6016 32.2656C55.8008 32.2656 55.1562 32.9102 55.1562 33.7109C55.1562 34.5117 55.8008 35.1563 56.6016 35.1563C57.4023 35.1563 58.0469 34.5117 58.0469 33.7109C58.0664 32.9102 57.4219 32.2656 56.6016 32.2656Z" fill="white" stroke="black" stroke-width="0.292969"/>
<path d="M45 32.2656C44.1992 32.2656 43.5547 32.9102 43.5547 33.7109C43.5547 34.5117 44.1992 35.1563 45 35.1563C45.8008 35.1563 46.4453 34.5117 46.4453 33.7109C46.4453 32.9102 45.8008 32.2656 45 32.2656Z" fill="white" stroke="black" stroke-width="0.292969"/>
<path d="M92.1875 0H7.8125C3.49609 0 0 3.49609 0 7.8125V92.1875C0 96.5039 3.49609 100 7.8125 100H92.1875C96.5039 100 100 96.5039 100 92.1875V7.8125C100 3.49609 96.5039 0 92.1875 0ZM35.3125 56.2891C35.3125 57.8906 34.0039 59.1992 32.4023 59.1992C30.8008 59.1992 29.4922 57.8906 29.4922 56.2891V43.8672C29.4922 42.2656 30.8008 40.957 32.4023 40.957C34.0039 40.957 35.3125 42.2656 35.3125 43.8672V56.2891ZM64.3555 43.3789V45.3516V62.2656C64.3555 63.9648 62.9883 65.332 61.2891 65.332H59.082C59.1602 65.5859 59.1992 65.8594 59.1992 66.1328V66.2891V67.2656V72.2656C59.1992 73.8672 57.8906 75.1758 56.2891 75.1758C54.6875 75.1758 53.3789 73.8672 53.3789 72.2656V67.2656V66.2891V66.1328C53.3789 65.8594 53.418 65.5859 53.4961 65.332H48.1055C48.1836 65.5859 48.2227 65.8594 48.2227 66.1328V66.2891V67.2656V72.2656C48.2227 73.8672 46.9141 75.1758 45.3125 75.1758C43.7109 75.1758 42.4023 73.8672 42.4023 72.2656V67.2656V66.2891V66.1328C42.4023 65.8594 42.4414 65.5859 42.5195 65.332H40.3125C38.6133 65.332 37.2461 63.9648 37.2461 62.2656V45.3516V43.3789V40.957H37.4609H64.1406H64.3555V43.3789ZM37.2461 39.043C37.2461 34.9023 40.0195 31.2695 44.1406 29.3555L43.5938 28.5352L43.0469 27.7344L41.8359 25.918C41.6992 25.7031 41.7578 25.3906 41.9727 25.2539C42.1875 25.0977 42.5 25.1758 42.6367 25.3906L43.9258 27.3242L44.4727 28.1445L45.0195 28.9648C46.7773 28.2812 48.7109 27.9102 50.7812 27.9102C52.832 27.9102 54.7852 28.2812 56.543 28.9648L57.0898 28.1445L57.6367 27.3242L58.9258 25.3906C59.0625 25.1758 59.375 25.0977 59.5898 25.2539C59.8047 25.4102 59.8828 25.7031 59.7266 25.918L58.5156 27.7344L58.0078 28.5352L57.4609 29.3555C61.5625 31.2695 64.3359 34.8828 64.3359 39.043H37.2461ZM72.0898 56.2891C72.0898 57.8906 70.7812 59.1992 69.1797 59.1992C67.5781 59.1992 66.2695 57.8906 66.2695 56.2891V43.8672C66.2695 42.2656 67.5781 40.957 69.1797 40.957C70.7812 40.957 72.0898 42.2656 72.0898 43.8672V56.2891Z" fill="white" stroke="black" stroke-width="0.292969"/>
</svg>
