<svg width="29" height="15" viewBox="0 0 29 15" fill="none" xmlns="http://www.w3.org/2000/svg">
<path fill-rule="evenodd" clip-rule="evenodd" d="M0.187744 7.5C0.187744 7.27902 0.29615 7.06709 0.489114 6.91083C0.682077 6.75457 0.943792 6.66678 1.21668 6.66678H25.4853L19.0091 1.42419C18.8159 1.26773 18.7074 1.05553 18.7074 0.834269C18.7074 0.613007 18.8159 0.400807 19.0091 0.244352C19.2023 0.0878957 19.4644 5.21311e-09 19.7376 0C20.0108 -5.21311e-09 20.2729 0.0878958 20.4661 0.244352L28.6976 6.91008C28.7934 6.98748 28.8695 7.07943 28.9213 7.18066C28.9732 7.28188 28.9999 7.3904 28.9999 7.5C28.9999 7.6096 28.9732 7.71812 28.9213 7.81934C28.8695 7.92057 28.7934 8.01252 28.6976 8.08992L20.4661 14.7556C20.2729 14.9121 20.0108 15 19.7376 15C19.4644 15 19.2023 14.9121 19.0091 14.7556C18.8159 14.5992 18.7074 14.387 18.7074 14.1657C18.7074 13.9445 18.8159 13.7323 19.0091 13.5758L25.4853 8.33322H1.21668C0.943792 8.33322 0.682077 8.24543 0.489114 8.08917C0.29615 7.93292 0.187744 7.72098 0.187744 7.5Z" fill="white"/>
</svg>
