<svg width="101" height="101" viewBox="0 0 101 101" fill="none" xmlns="http://www.w3.org/2000/svg">
<path d="M101 0H0V74.9355H17.605C14.8942 79.8926 13.2782 85.5291 13.0665 91.5158C11.1572 92.1804 9.77419 93.9789 9.77419 96.1129C9.77419 98.8073 11.9669 101 14.6613 101C17.3557 101 19.5484 98.8073 19.5484 96.1129C19.5484 94.0163 18.2142 92.2391 16.3571 91.5467C16.5884 85.4688 18.4032 79.8047 21.4153 74.9355H32.6588C32.983 78.5454 34.3905 81.9191 36.707 84.7097H34.2097V87.9677H37.4677V91.2258H34.2097V94.4839H37.4677V101H63.5323V94.4839H66.7903V91.2258H63.5323V87.9677H66.7903V84.7097H64.2946C66.6111 81.9191 68.0186 78.5454 68.3428 74.9355H79.5864C82.5968 79.8047 84.4132 85.4688 84.6445 91.5467C82.7858 92.2391 81.4516 94.0163 81.4516 96.1129C81.4516 98.8073 83.6443 101 86.3387 101C89.0331 101 91.2258 98.8073 91.2258 96.1129C91.2258 93.9789 89.8428 92.1804 87.9335 91.5158C87.7218 85.5291 86.1074 79.8926 83.3951 74.9355H101V0ZM14.6613 97.7419C13.7637 97.7419 13.0323 97.0105 13.0323 96.1129C13.0323 95.2153 13.7637 94.4839 14.6613 94.4839C15.5589 94.4839 16.2903 95.2153 16.2903 96.1129C16.2903 97.0105 15.5589 97.7419 14.6613 97.7419ZM86.3387 94.4839C87.2363 94.4839 87.9677 95.2153 87.9677 96.1129C87.9677 97.0105 87.2363 97.7419 86.3387 97.7419C85.4411 97.7419 84.7097 97.0105 84.7097 96.1129C84.7097 95.2153 85.4411 94.4839 86.3387 94.4839ZM23.6861 71.6774C27.2358 67.1911 31.8655 63.5958 37.2055 61.3347C34.6837 64.1317 33.0237 67.7156 32.6637 71.6774H23.6861ZM60.2742 97.7419H40.7258V94.4839H60.2742V97.7419ZM60.2742 91.2258H40.7258V87.9677H60.2742V91.2258ZM60.7629 83.7681L60.2742 84.247V84.7097H52.129V79.5913C54.931 78.8631 57.0161 76.3332 57.0161 73.3064C57.0161 69.7128 54.0936 66.7903 50.5 66.7903C46.9064 66.7903 43.9839 69.7128 43.9839 73.3064C43.9839 76.3332 46.069 78.8631 48.871 79.5913V84.7097H40.7258V84.247L40.2371 83.7681C37.401 80.9841 35.8387 77.2699 35.8387 73.3064C35.8387 65.2232 42.4167 58.6452 50.5 58.6452C58.5833 58.6452 65.1613 65.2232 65.1613 73.3064C65.1613 77.2699 63.599 80.9841 60.7629 83.7681ZM50.5 76.5645C48.7032 76.5645 47.2419 75.1033 47.2419 73.3064C47.2419 71.5096 48.7032 70.0484 50.5 70.0484C52.2968 70.0484 53.7581 71.5096 53.7581 73.3064C53.7581 75.1033 52.2968 76.5645 50.5 76.5645ZM68.3363 71.6774C67.9763 67.7156 66.3163 64.1317 63.7945 61.3347C69.1329 63.5958 73.7642 67.1911 77.3139 71.6774H68.3363ZM97.7419 71.6774H81.3865C77.4931 66.0165 72.0847 61.4797 65.7526 58.6452H85.0094C85.6838 60.5365 87.4758 61.9032 89.5968 61.9032C92.2912 61.9032 94.4839 59.7105 94.4839 57.0161C94.4839 54.3217 92.2912 52.129 89.5968 52.129C87.4758 52.129 85.6838 53.4958 85.0094 55.3871H15.9906C15.3162 53.4958 13.5242 52.129 11.4032 52.129C8.70881 52.129 6.51613 54.3217 6.51613 57.0161C6.51613 59.7105 8.70881 61.9032 11.4032 61.9032C13.5242 61.9032 15.3162 60.5365 15.9906 58.6452H35.2474C28.9153 61.4797 23.5069 66.0165 19.6135 71.6774H3.25806V16.2903H97.7419V71.6774ZM87.9677 57.0161C87.9677 56.1185 88.6992 55.3871 89.5968 55.3871C90.4944 55.3871 91.2258 56.1185 91.2258 57.0161C91.2258 57.9137 90.4944 58.6452 89.5968 58.6452C88.6992 58.6452 87.9677 57.9137 87.9677 57.0161ZM13.0323 57.0161C13.0323 57.9137 12.3008 58.6452 11.4032 58.6452C10.5056 58.6452 9.77419 57.9137 9.77419 57.0161C9.77419 56.1185 10.5056 55.3871 11.4032 55.3871C12.3008 55.3871 13.0323 56.1185 13.0323 57.0161ZM97.7419 13.0323H3.25806V3.25806H97.7419V13.0323Z" fill="white"/>
<path d="M16.2903 6.51611H6.51611V9.77418H16.2903V6.51611Z" fill="white"/>
<path d="M22.8065 6.51611H19.5484V9.77418H22.8065V6.51611Z" fill="white"/>
<path d="M32.5806 19.5483H6.51611V48.8709H32.5806V19.5483ZM29.3226 45.6129H9.77418V22.8064H29.3226V45.6129Z" fill="white"/>
<path d="M65.1613 19.5483H35.8387V48.8709H65.1613V19.5483ZM61.9032 45.6129H39.0968V22.8064H61.9032V45.6129Z" fill="white"/>
<path d="M94.4839 19.5483H68.4194V48.8709H94.4839V19.5483ZM91.2258 45.6129H71.6774V22.8064H91.2258V45.6129Z" fill="white"/>
</svg>
