<svg width="36" height="33" viewBox="0 0 36 33" fill="none" xmlns="http://www.w3.org/2000/svg">
<path d="M17.9755 0C8.04406 0 0 7.38375 0 16.5C0 23.8013 5.1455 29.9681 12.2908 32.1544C13.1896 32.2988 13.5266 31.8038 13.5266 31.3706C13.5266 30.9788 13.5041 29.6794 13.5041 28.2975C8.98777 29.0606 7.81936 27.2869 7.45985 26.3588C7.25763 25.8844 6.38132 24.42 5.61736 24.0281C4.98821 23.7188 4.08944 22.9556 5.59489 22.935C7.01046 22.9144 8.02159 24.1313 8.35863 24.6263C9.97643 27.1219 12.5604 26.4206 13.594 25.9875C13.7513 24.915 14.2231 24.1931 14.7399 23.7806C10.7404 23.3681 6.56107 21.945 6.56107 15.6338C6.56107 13.8394 7.25763 12.3544 8.40357 11.1994C8.22381 10.7869 7.59467 9.09563 8.58332 6.82688C8.58332 6.82688 10.0888 6.39375 13.5266 8.51813C14.9646 8.14688 16.4926 7.96125 18.0205 7.96125C19.5484 7.96125 21.0763 8.14688 22.5144 8.51813C25.9522 6.37313 27.4576 6.82688 27.4576 6.82688C28.4463 9.09563 27.8172 10.7869 27.6374 11.1994C28.7833 12.3544 29.4799 13.8188 29.4799 15.6338C29.4799 21.9656 25.2781 23.3681 21.2786 23.7806C21.9302 24.2963 22.4919 25.2863 22.4919 26.8331C22.4919 29.04 22.4694 30.8138 22.4694 31.3706C22.4694 31.8038 22.8065 32.3194 23.7052 32.1544C27.2743 31.0494 30.3757 28.9444 32.5726 26.1361C34.7695 23.3277 35.9511 19.9574 35.9511 16.5C35.9511 7.38375 27.907 0 17.9755 0Z" fill="black"/>
</svg>
