<svg width="65" height="65" viewBox="0 0 65 65" fill="none" xmlns="http://www.w3.org/2000/svg">
<path fill-rule="evenodd" clip-rule="evenodd" d="M5.71834 5.71834C12.2922 -0.855495 22.9505 -0.855495 29.5243 5.71834L41.4271 17.6213C48.0009 24.1952 48.0009 34.8533 41.4271 41.4271C39.7837 43.0709 37.119 43.0709 35.4757 41.4271C33.8323 39.7837 33.8323 37.119 35.4757 35.4757C38.7628 32.189 38.7628 26.8595 35.4757 23.5728L23.5728 11.6698C20.2859 8.38293 14.9567 8.38293 11.6698 11.6698C8.38293 14.9567 8.38293 20.2859 11.6698 23.5728L14.6456 26.5485C16.289 28.1919 16.289 30.8566 14.6456 32.5C13.0021 34.1433 10.3375 34.1433 8.6941 32.5L5.71834 29.5243C-0.855495 22.9505 -0.855495 12.2922 5.71834 5.71834ZM29.5243 23.5728C31.1676 25.2162 31.1676 27.8809 29.5243 29.5243C26.2375 32.8114 26.2375 38.1404 29.5243 41.4271L41.4271 53.3304C44.7142 56.6171 50.0432 56.6171 53.3304 53.3304C56.6171 50.0432 56.6171 44.7142 53.3304 41.4271L50.3547 38.4514C48.7109 36.808 48.7109 34.1433 50.3547 32.5C51.998 30.8566 54.6623 30.8566 56.3061 32.5L59.2818 35.4757C65.8556 42.0495 65.8556 52.708 59.2818 59.2818C52.708 65.8556 42.0495 65.8556 35.4757 59.2818L23.5728 47.3789C16.999 40.8051 16.999 30.1467 23.5728 23.5728C25.2162 21.9293 27.8809 21.9293 29.5243 23.5728Z" fill="white"/>
</svg>
